<?xml version="1.0" encoding="UTF-8" standalone="no"?>
<!-- Created with Inkscape (http://www.inkscape.org/) -->

<svg
   version="1.1"
   id="svg2"
   width="653.21332"
   height="68.41333"
   viewBox="0 0 653.21332 68.41333"
   sodipodi:docname="Diva Logo.eps"
   xmlns:inkscape="http://www.inkscape.org/namespaces/inkscape"
   xmlns:sodipodi="http://sodipodi.sourceforge.net/DTD/sodipodi-0.dtd"
   xmlns="http://www.w3.org/2000/svg"
   xmlns:svg="http://www.w3.org/2000/svg">
  <defs
     id="defs6" />
  <sodipodi:namedview
     id="namedview4"
     pagecolor="#ffffff"
     bordercolor="#000000"
     borderopacity="0.25"
     inkscape:showpageshadow="2"
     inkscape:pageopacity="0.0"
     inkscape:pagecheckerboard="0"
     inkscape:deskcolor="#d1d1d1" />
  <g
     id="g8"
     inkscape:groupmode="layer"
     inkscape:label="ink_ext_XXXXXX"
     transform="matrix(1.3333333,0,0,-1.3333333,0,68.413333)">
    <g
       id="g10"
       transform="scale(0.1)">
      <path
         d="m 98.5078,310.051 c 0,44.351 0,103.117 0.5742,122.703 0,6.34 1.734,9.219 6.918,11.519 4.605,2.309 25.926,4.032 37.445,4.032 68.559,0 134.235,-8.059 188.387,-65.098 23.617,-24.769 55.301,-72.008 55.301,-145.168 0,-53.012 -16.125,-108.312 -46.086,-137.695 -33.988,-33.9885 -83.535,-53.5745 -137.113,-53.5745 -67.977,0 -90.45,12.086 -97.934,23.043 -4.609,6.332 -5.762,29.375 -6.332,43.7815 -0.586,10.949 -1.1602,63.957 -1.1602,125.011 z M 50.1172,199.434 c 0,-55.301 0,-100.8207 -2.8828,-125.0082 C 44.9336,57.7148 42.0508,45.0391 30.5273,42.7344 25.3438,41.582 18.4336,40.4297 13.2461,40.4297 c -3.46094,0 -4.61329,-1.7305 -4.61329,-3.457 0,-3.4571 2.89059,-4.6094 9.22269,-4.6094 17.2851,0 53.5781,1.7305 56.4531,1.7305 5.7578,0 78.3554,-6.9141 127.8984,-6.9141 97.938,0 149.785,40.332 174.566,66.25 32.254,33.9923 62.211,89.8713 62.211,162.4613 0,68.55 -27.082,116.375 -55.879,146.332 -68.558,70.859 -173.984,65.672 -231.027,65.672 -34.562,-0.004 -70.8553,-1.727 -77.7694,-1.727 -2.875,0 -39.1758,1.723 -65.09766,1.723 C 2.87109,467.895 0,466.75 0,463.293 c 0,-2.313 2.30078,-3.465 4.59766,-3.465 5.1875,0 14.98044,-0.57 19.59764,-1.726 19.0078,-4.036 23.6172,-13.254 24.7695,-32.836 1.1524,-18.442 1.1524,-34.567 1.1524,-124.434 V 199.434"
         style="fill:#000000;fill-opacity:1;fill-rule:nonzero;stroke:none"
         id="path12" />
      <path
         d="m 776.578,199.434 c 0,-55.301 0,-100.8207 2.875,-125.0082 1.735,-16.711 5.188,-29.3867 22.473,-31.6914 8.058,-1.1524 20.742,-2.3047 25.918,-2.3047 3.461,0 4.613,-1.7305 4.613,-3.457 0,-2.8789 -2.883,-4.6094 -9.227,-4.6094 -31.683,0 -67.972,1.7305 -70.847,1.7305 -2.887,0 -39.18,-1.7305 -56.465,-1.7305 -6.336,0 -9.207,1.1523 -9.207,4.6094 0,1.7265 1.148,3.457 4.598,3.457 5.183,0 12.097,1.1523 17.285,2.3047 11.523,2.3047 14.406,14.9804 16.703,31.6914 2.891,24.1875 2.891,69.7072 2.891,125.0082 v 101.398 c 0,89.867 0,105.992 -1.161,124.434 -1.148,19.582 -6.91,29.382 -19.586,32.261 -6.339,1.731 -13.824,2.301 -17.859,2.301 -2.297,0 -4.609,1.152 -4.609,3.465 0,3.457 2.886,4.602 9.222,4.598 19.008,0 55.301,-1.723 58.188,-1.723 2.875,0 39.164,1.723 56.457,1.727 6.332,0 9.219,-1.145 9.219,-4.602 0,-2.313 -2.313,-3.465 -4.618,-3.465 -4.031,0 -7.484,-0.57 -14.394,-1.726 -15.555,-2.875 -20.168,-12.672 -21.317,-32.836 -1.152,-18.442 -1.152,-34.567 -1.152,-124.434 V 199.434"
         style="fill:#000000;fill-opacity:1;fill-rule:nonzero;stroke:none"
         id="path14" />
      <path
         d="m 1256.45,102.645 c 33.43,77.199 110.62,278.261 123.29,319.738 2.89,8.64 5.19,16.711 5.19,21.89 0,4.614 -1.73,10.375 -7.48,13.254 -6.92,2.301 -15.56,2.301 -21.9,2.301 -3.46,0 -6.34,0.582 -6.34,3.465 0,3.457 3.47,4.602 12.68,4.598 23.04,0 49.54,-1.723 56.45,-1.723 3.46,0 28.23,1.723 44.94,1.727 6.33,0 9.79,-1.145 9.79,-4.028 0,-2.887 -2.3,-4.039 -6.91,-4.039 -4.03,0 -16.71,0 -27.65,-6.906 -7.49,-5.192 -16.13,-14.984 -31.69,-54.156 -6.33,-16.133 -35.14,-85.258 -64.52,-156.121 -35.14,-84.122 -61.07,-146.3364 -74.32,-174.5591 -16.13,-34.5703 -18.43,-43.789 -24.19,-43.789 -6.91,0 -9.81,8.0664 -20.74,35.7148 L 1081.9,413.168 c -12.67,32.262 -21.31,38.602 -41.47,44.359 -8.65,2.301 -18.44,2.301 -21.9,2.301 -3.46,0 -4.61,1.731 -4.61,4.039 0,3.457 5.76,4.028 14.98,4.024 27.65,0 60.49,-1.723 67.4,-1.723 5.76,0 31.68,1.723 53.58,1.727 10.37,0 15.56,-1.145 15.56,-4.028 0,-2.887 -1.73,-4.039 -5.77,-4.039 -6.33,0 -16.7,-0.57 -21.89,-2.879 -6.33,-2.883 -7.49,-7.484 -7.49,-11.519 0,-7.492 6.92,-25.352 15.57,-47.825 l 110.59,-294.96"
         style="fill:#000000;fill-opacity:1;fill-rule:nonzero;stroke:none"
         id="path16" />
      <path
         d="m 1741.53,223.059 c -1.73,0 -2.88,1.152 -1.73,4.023 l 50.7,155.551 c 2.88,8.64 5.76,8.64 8.64,0 l 54.73,-155.551 c 0.57,-2.297 0.57,-4.023 -2.31,-4.023 z M 1660.88,95.7305 c -10.38,-28.8047 -21.9,-50.6914 -48.4,-54.1485 -4.61,-0.5742 -12.67,-1.1523 -16.7,-1.1523 -2.88,0 -5.19,-1.1524 -5.19,-3.457 0,-3.4571 3.46,-4.6094 10.95,-4.6094 27.08,0 58.76,1.7305 65.1,1.7305 6.33,0 31.1,-1.7305 44.94,-1.7305 5.18,0 8.63,1.1523 8.63,4.6094 0,2.3046 -1.73,3.457 -5.76,3.457 h -5.76 c -9.79,0 -21.89,5.1836 -21.89,16.7109 0,10.3711 2.88,24.1992 8.07,38.5899 l 34.56,101.9765 c 1.16,2.879 2.88,4.606 5.77,4.606 h 123.86 c 2.87,0 4.03,-1.149 5.18,-3.458 l 53.58,-141.7144 c 3.45,-9.2187 0,-14.4062 -3.46,-15.5586 -2.31,-0.5742 -4.03,-1.7265 -4.03,-4.0312 0,-3.457 6.33,-3.457 17.28,-4.0352 39.75,-1.1523 81.8,-1.1523 90.45,-1.1523 6.34,0 11.53,1.1523 11.53,4.6094 0,2.8828 -2.32,3.457 -5.77,3.457 -5.76,0 -14.41,0.5781 -23.04,3.457 -12.1,3.4571 -28.81,12.6758 -49.55,63.9453 -35.14,87.566 -125.59,325.5 -134.23,347.395 -6.92,17.855 -9.22,20.734 -12.68,20.734 -3.45,0 -5.76,-3.449 -12.68,-22.465 L 1660.88,95.7305"
         style="fill:#000000;fill-opacity:1;fill-rule:nonzero;stroke:none"
         id="path18" />
      <path
         d="m 2973.22,300.832 c 0,89.867 0,105.992 -1.14,124.434 -1.16,19.582 -5.76,28.8 -24.78,32.836 -4.6,1.156 -14.4,1.726 -19.59,1.726 -2.3,0 -4.6,1.152 -4.6,3.465 0,3.457 2.89,4.602 9.21,4.598 25.92,0 60.49,-1.723 65.1,-1.723 12.68,0 46.09,1.723 72.59,1.727 72.01,0 97.94,-24.196 107.16,-32.836 12.67,-12.098 28.8,-38.024 28.8,-68.555 0,-81.809 -59.92,-137.117 -141.72,-137.117 -2.87,0 -9.21,0 -12.1,0.586 -2.87,0 -6.33,1.152 -6.33,4.031 0,4.601 3.46,5.184 15.56,5.184 55.87,0 99.66,40.902 99.66,93.898 0,19.016 -1.73,57.613 -32.27,88.723 -30.53,31.113 -65.67,28.804 -78.92,28.804 -9.79,0 -19.6,-1.148 -24.77,-3.457 -3.46,-1.148 -4.61,-5.183 -4.61,-10.945 V 199.434 c 0,-55.301 0,-100.8207 2.87,-125.0082 1.74,-16.711 5.2,-29.3867 22.48,-31.6914 8.06,-1.1524 20.74,-2.3047 25.92,-2.3047 3.46,0 4.61,-1.7305 4.61,-3.457 0,-2.8789 -2.87,-4.6094 -9.22,-4.6094 -31.68,0 -67.98,1.7305 -70.86,1.7305 -1.73,0 -38.03,-1.7305 -55.31,-1.7305 -6.33,0 -9.21,1.1523 -9.21,4.6094 0,1.7265 1.15,3.457 4.6,3.457 5.19,0 12.11,1.1523 17.28,2.3047 11.53,2.3047 14.42,14.9804 16.71,31.6914 2.88,24.1875 2.88,69.7072 2.88,125.0082 v 101.398"
         style="fill:#000000;fill-opacity:1;fill-rule:nonzero;stroke:none"
         id="path20" />
      <path
         d="m 3492.87,300.832 c 0,89.867 0,105.992 -1.16,124.434 -1.14,19.582 -5.75,28.8 -24.77,32.836 -4.6,1.156 -14.4,1.726 -19.58,1.726 -2.3,0 -4.61,1.152 -4.61,3.465 0,3.457 2.89,4.602 9.22,4.602 25.92,0 62.21,-1.727 65.1,-1.727 4.02,0 118.67,0 131.93,0.582 10.94,0.574 20.16,1.723 24.77,2.879 2.87,0.578 5.18,2.883 8.07,2.883 1.71,0 2.29,-2.305 2.29,-5.188 0,-4.031 -2.87,-10.945 -4.61,-27.078 -0.57,-5.766 -1.73,-31.113 -2.88,-38.023 -0.57,-2.883 -1.72,-6.332 -4.02,-6.332 -3.46,0 -4.62,2.875 -4.62,7.48 0,4.035 -0.58,13.824 -3.45,20.738 -4.04,9.223 -9.8,16.137 -40.9,19.59 -9.8,1.149 -72.6,1.731 -78.93,1.731 -2.31,0 -3.45,-1.731 -3.45,-5.762 V 280.664 c 0,-4.031 0.57,-5.762 3.45,-5.762 7.49,0 78.35,0 91.6,1.153 13.82,1.152 21.89,2.304 27.08,8.066 4.02,4.602 6.33,7.488 8.63,7.488 1.74,0 2.89,-1.148 2.89,-4.605 0,-3.457 -2.89,-13.254 -4.61,-32.27 -1.15,-11.519 -2.31,-32.832 -2.31,-36.875 0,-4.597 0,-10.933 -4.03,-10.933 -2.88,0 -4.03,2.304 -4.03,5.176 0,5.757 0,11.523 -2.3,19.023 -2.31,8.063 -7.5,17.852 -29.96,20.152 -15.55,1.731 -72.59,2.895 -82.39,2.895 -2.88,0 -4.02,-1.738 -4.02,-4.043 v -50.695 c 0,-19.59 -0.59,-86.414 0,-98.516 1.72,-39.7539 10.37,-47.2344 66.82,-47.2344 14.98,0 40.33,0 55.31,6.3281 14.98,6.3438 21.89,17.8711 25.92,41.4843 1.15,6.336 2.3,8.641 5.19,8.641 3.45,0 3.45,-4.61 3.45,-8.641 0,-4.6093 -4.6,-43.7812 -7.49,-55.8827 -4.04,-14.9766 -8.63,-14.9766 -31.11,-14.9766 -86.98,0 -125.58,3.4571 -142.29,3.4571 -2.89,0 -39.18,-1.7305 -56.46,-1.7305 -6.33,0 -9.22,1.1523 -9.22,4.6094 0,1.7265 1.15,3.457 4.61,3.457 5.18,0 12.09,1.1523 17.28,2.3047 11.52,2.3047 14.4,14.9804 16.7,31.6914 2.89,24.1875 2.89,69.7072 2.89,125.0082 v 101.398"
         style="fill:#000000;fill-opacity:1;fill-rule:nonzero;stroke:none"
         id="path22" />
      <path
         d="m 4040.16,439.094 c 0,3.457 1.73,5.754 4.61,6.914 5.76,1.722 21.32,3.457 38.6,3.457 61.63,0 99.66,-43.215 99.66,-115.215 0,-43.789 -14.98,-74.902 -35.14,-88.73 -13.26,-9.211 -29.38,-10.938 -43.22,-10.938 -25.33,0 -51.84,4.023 -60.48,9.207 -2.88,1.731 -4.03,4.031 -4.03,6.914 z m -46.09,-239.66 c 0,-55.301 0,-100.8207 -2.88,-125.0082 -2.3,-16.711 -5.19,-29.3867 -16.72,-31.6914 -5.17,-1.1524 -12.09,-2.3047 -17.28,-2.3047 -3.45,0 -4.59,-1.7305 -4.59,-3.457 0,-3.4571 2.87,-4.6094 9.21,-4.6094 17.28,0 53.57,1.7305 54.15,1.7305 2.89,0 39.18,-1.7305 70.86,-1.7305 6.33,0 9.22,1.7305 9.22,4.6094 0,1.7265 -1.16,3.457 -4.61,3.457 -5.19,0 -17.86,1.1523 -25.92,2.3047 -17.29,2.3047 -20.74,14.9804 -22.47,31.6914 -2.88,24.1875 -2.88,69.7072 -2.88,125.0082 v 13.828 c 0,2.883 1.15,4.597 4.03,4.597 l 70.86,-1.14 c 3.46,0 5.18,-1.153 7.49,-3.457 11.52,-14.981 38.59,-53.582 62.79,-85.262 32.85,-43.2148 53.01,-71.4375 77.78,-84.6875 14.98,-8.0664 29.37,-10.9492 61.64,-10.9492 h 40.91 c 10.36,0 13.81,1.1523 13.81,4.6094 0,1.7265 -2.28,3.457 -5.17,3.457 -3.46,0 -11.53,0 -22.47,1.7266 -14.41,2.3085 -39.17,8.6445 -70.29,41.4882 -33.4,35.7105 -72.58,86.9805 -119.82,147.4805 51.84,47.813 69.71,90.438 69.71,133.074 0,39.746 -25.36,67.981 -39.76,78.352 -30.54,21.887 -69.13,25.344 -105.43,25.344 -17.86,-0.004 -61.63,-1.727 -67.98,-1.727 -2.88,0 -39.17,1.723 -65.1,1.723 -6.32,0.004 -9.21,-1.141 -9.21,-4.598 0,-2.313 2.3,-3.465 4.6,-3.465 5.19,0 14.99,-0.57 19.59,-1.726 19.01,-4.036 23.62,-13.254 24.77,-32.836 1.16,-18.442 1.16,-34.567 1.16,-124.434 V 199.434"
         style="fill:#000000;fill-opacity:1;fill-rule:nonzero;stroke:none"
         id="path24" />
      <path
         d="m 4611.07,223.059 c -1.72,0 -2.87,1.152 -1.72,4.023 l 50.69,155.551 c 2.88,8.64 5.76,8.64 8.64,0 l 54.73,-155.551 c 0.57,-2.297 0.57,-4.023 -2.3,-4.023 z M 4530.41,95.7305 c -10.36,-28.8047 -21.89,-50.6914 -48.39,-54.1485 -4.61,-0.5742 -12.66,-1.1523 -16.71,-1.1523 -2.87,0 -5.18,-1.1524 -5.18,-3.457 0,-3.4571 3.46,-4.6094 10.94,-4.6094 27.09,0 58.77,1.7305 65.1,1.7305 6.34,0 31.12,-1.7305 44.94,-1.7305 5.19,0 8.64,1.1523 8.64,4.6094 0,2.3046 -1.72,3.457 -5.77,3.457 h -5.76 c -9.78,0 -21.87,5.1836 -21.87,16.7109 0,10.3711 2.87,24.1992 8.05,38.5899 l 34.57,101.9765 c 1.15,2.879 2.88,4.606 5.77,4.606 h 123.85 c 2.88,0 4.05,-1.149 5.2,-3.458 l 53.57,-141.7144 c 3.46,-9.2187 0,-14.4062 -3.47,-15.5586 -2.29,-0.5742 -4.01,-1.7265 -4.01,-4.0312 0,-3.457 6.33,-3.457 17.28,-4.0352 39.73,-1.1523 81.8,-1.1523 90.44,-1.1523 6.33,0 11.52,1.1523 11.52,4.6094 0,2.8828 -2.3,3.457 -5.76,3.457 -5.76,0 -14.4,0.5781 -23.05,3.457 -12.09,3.4571 -28.81,12.6758 -49.53,63.9453 -35.14,87.566 -125.6,325.5 -134.24,347.395 -6.91,17.855 -9.22,20.734 -12.67,20.734 -3.46,0 -5.76,-3.449 -12.68,-22.465 L 4530.41,95.7305"
         style="fill:#000000;fill-opacity:1;fill-rule:nonzero;stroke:none"
         id="path26" />
      <path
         d="m 2450.5,513.102 c -141.69,0 -256.55,-114.864 -256.55,-256.547 C 2193.95,114.863 2308.81,0 2450.5,0 c 141.69,0 256.55,114.863 256.55,256.555 0,141.683 -114.86,256.547 -256.55,256.547 z m 0,-410.473 c -85.01,0 -153.93,68.902 -153.93,153.926 0,85.008 68.92,153.925 153.93,153.925 85.01,0 153.93,-68.917 153.93,-153.925 0,-85.024 -68.92,-153.926 -153.93,-153.926"
         style="fill:#e22739;fill-opacity:1;fill-rule:nonzero;stroke:none"
         id="path28" />
    </g>
  </g>
</svg>
